<svg width="905" height="553" viewBox="0 0 905 553" fill="none" xmlns="http://www.w3.org/2000/svg">
<g id="Group 1">
<rect id="Studio A" y="187" width="62" height="111" fill="#D9D9D9"/>
<rect id="Studio 5" y="117" width="62" height="28" fill="#D9D9D9"/>
<rect id="Studio 6" y="146" width="25" height="39" fill="#D9D9D9"/>
<rect id="Studio 58" x="285" y="191" width="38" height="41" fill="#D9D9D9"/>
<rect id="Studio G" x="261" y="140" width="62" height="49" fill="#D9D9D9"/>
<rect id="Studio 56A" x="261" y="110" width="62" height="27" fill="#D9D9D9"/>
<rect id="Studio K" x="463" y="28" width="60" height="19" fill="#D9D9D9"/>
<rect id="Studio L" x="463" y="49" width="60" height="19" fill="#D9D9D9"/>
<rect id="Studio M" x="463" y="69" width="60" height="19" fill="#D9D9D9"/>
<rect id="Studio N" x="463" y="89" width="60" height="19" fill="#D9D9D9"/>
<rect id="Studio O" x="463" y="109" width="60" height="19" fill="#D9D9D9"/>
<rect id="Studio P" x="463" y="129" width="60" height="19" fill="#D9D9D9"/>
<rect id="Studio I" x="463" y="149" width="60" height="50" fill="#D9D9D9"/>
<rect id="Studio J" x="463" y="200" width="60" height="50" fill="#D9D9D9"/>
<rect id="Womens Bathroom" x="325" y="270" width="32" height="43" fill="#D9D9D9"/>
<rect id="Studio 46" x="226" y="270" width="31" height="55" fill="#D9D9D9"/>
<rect id="Studio 18" x="92" y="300" width="50" height="25" fill="#D9D9D9"/>
<rect id="Studio B" y="302" width="50" height="21" fill="#D9D9D9"/>
<rect id="Studio C" y="325" width="50" height="37" fill="#D9D9D9"/>
<rect id="Studio 8" y="364" width="50" height="36" fill="#D9D9D9"/>
<rect id="Studio 9" y="401" width="50" height="36" fill="#D9D9D9"/>
<rect id="Studio 10" y="439" width="50" height="36" fill="#D9D9D9"/>
<rect id="Studio 11" y="477" width="50" height="36" fill="#D9D9D9"/>
<rect id="Studio 12" y="515" width="50" height="36" fill="#D9D9D9"/>
<rect id="Studio 17" x="64" y="340" width="39" height="26" fill="#D9D9D9"/>
<rect id="Studio 16" x="64" y="367" width="39" height="26" fill="#D9D9D9"/>
<rect id="Studio 15" x="64" y="395" width="39" height="26" fill="#D9D9D9"/>
<rect id="Studio 21" x="105" y="385" width="56" height="23" fill="#D9D9D9"/>
<rect id="Studio 22" x="105" y="411" width="56" height="23" fill="#D9D9D9"/>
<rect id="Studio 23" x="105" y="436" width="28" height="40" fill="#D9D9D9"/>
<rect id="Studio 24" x="135" y="436" width="26" height="40" fill="#D9D9D9"/>
<rect id="Studio 29" x="163" y="339" width="52" height="36" fill="#D9D9D9"/>
<rect id="Studio 28" x="175" y="377" width="51" height="23" fill="#D9D9D9"/>
<rect id="Studio 27" x="175" y="402" width="51" height="23" fill="#D9D9D9"/>
<rect id="Studio 26" x="175" y="427" width="51" height="23" fill="#D9D9D9"/>
<rect id="Studio 25" x="175" y="452" width="51" height="23" fill="#D9D9D9"/>
<rect id="Studio 35" x="241" y="391" width="26" height="36" fill="#D9D9D9"/>
<rect id="Studio 36" x="268" y="391" width="26" height="36" fill="#D9D9D9"/>
<rect id="Studio 37" x="295" y="391" width="26" height="36" fill="#D9D9D9"/>
<rect id="Studio 38" x="322" y="391" width="26" height="36" fill="#D9D9D9"/>
<rect id="Studio 40" x="241" y="428" width="40" height="28" fill="#D9D9D9"/>
<rect id="Studio 41" x="241" y="457" width="40" height="28" fill="#D9D9D9"/>
<rect id="Studio 42" x="241" y="486" width="40" height="28" fill="#D9D9D9"/>
<rect id="Studio 45" x="282" y="428" width="40" height="28" fill="#D9D9D9"/>
<rect id="Studio 42_2" x="282" y="457" width="40" height="28" fill="#D9D9D9"/>
<rect id="Studio 43" x="282" y="486" width="40" height="28" fill="#D9D9D9"/>
<rect id="Audrey Love" x="366" y="413" width="123" height="136" fill="#D9D9D9"/>
<rect id="Garden" x="636" y="273" width="100" height="280" fill="#D9D9D9"/>
<rect id="Event Entrance" x="519" y="505" width="76" height="36" fill="#D9D9D9"/>
<rect id="Studio 6_2" x="754" y="430" width="22" height="36" fill="#D9D9D9"/>
<rect id="Elevator 2nd Floor" x="755" y="476" width="20" height="19" fill="#D9D9D9"/>
<rect id="Studio 7" x="777" y="430" width="22" height="29" fill="#D9D9D9"/>
<rect id="Studio 8_2" x="800" y="430" width="22" height="36" fill="#D9D9D9"/>
<rect id="Studio 9_2" x="823" y="430" width="21" height="36" fill="#D9D9D9"/>
<rect id="Studio 10_2" x="846" y="430" width="21" height="36" fill="#D9D9D9"/>
<rect id="Studio 11_2" x="879" y="430" width="26" height="36" fill="#D9D9D9"/>
<rect id="Studio 4" x="799" y="482" width="25" height="36" fill="#D9D9D9"/>
<rect id="Studio 5_2" x="754" y="520" width="51" height="32" fill="#D9D9D9"/>
<rect id="Studio 3" x="826" y="482" width="25" height="36" fill="#D9D9D9"/>
<rect id="Studio 2" x="853" y="482" width="25" height="36" fill="#D9D9D9"/>
<rect id="Studio 1" x="880" y="482" width="25" height="36" fill="#D9D9D9"/>
<rect id="Elevator First Floor" x="346" y="437" width="20" height="19" fill="#D9D9D9"/>
<rect id="Studio 30" x="217" y="339" width="31" height="36" fill="#D9D9D9"/>
<rect id="Studio 31" x="250" y="339" width="31" height="36" fill="#D9D9D9"/>
<rect id="Studio 32" x="283" y="339" width="31" height="36" fill="#D9D9D9"/>
<rect id="Studio 33" x="316" y="339" width="31" height="36" fill="#D9D9D9"/>
<rect id="Studio 14" x="64" y="422" width="39" height="26" fill="#D9D9D9"/>
<rect id="Studio 13" x="64" y="450" width="39" height="26" fill="#D9D9D9"/>
<rect id="Studio D" x="144" y="300" width="50" height="25" fill="#D9D9D9"/>
<rect id="Studio 47" x="259" y="270" width="31" height="55" fill="#D9D9D9"/>
<rect id="Studio 48" x="292" y="270" width="31" height="55" fill="#D9D9D9"/>
<rect id="Mens Bathroom" x="361" y="270" width="32" height="43" fill="#D9D9D9"/>
<rect id="Studio 54" x="433" y="270" width="56" height="55" fill="#D9D9D9"/>
<rect id="Studio 55" x="491" y="270" width="56" height="55" fill="#D9D9D9"/>
<rect id="Studio H" x="325" y="253" width="68" height="15" fill="#D9D9D9"/>
<rect id="Studio F" x="433" y="253" width="90" height="15" fill="#D9D9D9"/>
<rect id="Studio E" x="226" y="210" width="38" height="41" fill="#D9D9D9"/>
<rect id="Studio 4_2" y="87" width="62" height="28" fill="#D9D9D9"/>
<rect id="Studio 3_2" y="58" width="62" height="28" fill="#D9D9D9"/>
<rect id="Studio 2_2" y="29" width="62" height="28" fill="#D9D9D9"/>
<rect id="Studio 1_2" width="62" height="28" fill="#D9D9D9"/>
</g>
</svg>